<?xml version="1.0" encoding="utf-8"?>
<!-- Generator: Adobe Illustrator 24.0.1, SVG Export Plug-In . SVG Version: 6.00 Build 0)  -->
<svg version="1.1" id="图层_1" xmlns="http://www.w3.org/2000/svg" xmlns:xlink="http://www.w3.org/1999/xlink" x="0px" y="0px"
	 viewBox="0 0 2872 1480" style="enable-background:new 0 0 2872 1480;" xml:space="preserve">
<style type="text/css">
	.st0{opacity:0.2;}
	.st1{fill:#E6E6E6;}
	.st2{fill:none;stroke:#666666;stroke-width:3;stroke-miterlimit:10;}
	.st3{fill:none;stroke:#666666;stroke-width:3;stroke-miterlimit:10;stroke-dasharray:12.0523,12.0523;}
	.st4{fill:none;stroke:#666666;stroke-width:3;stroke-miterlimit:10;stroke-dasharray:12.0878,12.0878;}
	.st5{fill:#FFF2EA;stroke:#D9C0A0;stroke-width:5;stroke-miterlimit:10;}
	.st6{fill:none;stroke:#666666;stroke-width:3;stroke-miterlimit:10;stroke-dasharray:11.9778,11.9778;}
	.st7{fill:none;stroke:#666666;stroke-width:3;stroke-miterlimit:10;stroke-dasharray:11.9632,11.9632;}
	.st8{opacity:0.4;fill:#FFFFFF;stroke:#000000;stroke-width:3;stroke-miterlimit:10;}
	.st9{fill:#C7B299;stroke:#000000;stroke-width:3;stroke-miterlimit:10;}
	.st10{fill:none;stroke:#666666;stroke-width:3;stroke-miterlimit:10;stroke-dasharray:11.9598,11.9598;}
	.st11{fill:none;stroke:#666666;stroke-width:3;stroke-miterlimit:10;stroke-dasharray:11.7839,11.7839;}
	.st12{opacity:0.7;}
	.st13{fill:#91ADB0;}
	.st14{fill:none;stroke:#000000;stroke-width:3;stroke-miterlimit:10;}
	.st15{fill:none;stroke:#000000;stroke-width:3;stroke-miterlimit:10;stroke-dasharray:5.2505,5.2505;}
	.st16{fill:none;stroke:#000000;stroke-width:3;stroke-miterlimit:10;stroke-dasharray:5.5157,5.5157;}
	.st17{fill:#9EC489;stroke:#000000;stroke-width:3;stroke-miterlimit:10;}
	.st18{fill:#CEBAB4;stroke:#000000;stroke-width:3;stroke-miterlimit:10;}
	.st19{fill:#CDC874;stroke:#000000;stroke-width:3;stroke-miterlimit:10;}
	.st20{fill:#91ADB0;stroke:#000000;stroke-width:3;stroke-miterlimit:10;}
	.st21{font-family:'ComicSansMS';}
	.st22{font-size:26.8325px;}
	.st23{opacity:0.5;fill:#FFF2EA;stroke:#000000;stroke-width:3;stroke-miterlimit:10;}
	.st24{fill:#999999;stroke:#000000;stroke-width:3;stroke-miterlimit:10;}
	.st25{font-size:28px;}
	.st26{fill:url(#SVGID_1_);}
	.st27{fill:none;stroke:#000000;stroke-width:3;stroke-miterlimit:10;stroke-dasharray:7.088,7.088;}
	.st28{fill:none;stroke:#000000;stroke-width:2;stroke-miterlimit:8;}
	.st29{fill:none;stroke:#000000;stroke-width:1.5;stroke-miterlimit:8;stroke-dasharray:6,6;}
	.st30{fill:none;stroke:#000000;stroke-width:1.5;stroke-miterlimit:10;}
	.st31{opacity:0.4;fill:#9774A6;stroke:#000000;stroke-miterlimit:10;}
	.st32{fill:none;stroke:#000000;stroke-width:2;stroke-miterlimit:10;}
	.st33{fill:#999999;stroke:#000000;stroke-miterlimit:10;}
	.st34{font-size:20.5716px;}
	.st35{fill:#CCE5FF;stroke:#000000;stroke-miterlimit:10;}
	.st36{font-size:25.0437px;}
	.st37{fill:#D6E8D4;stroke:#000000;stroke-miterlimit:10;}
	.st38{font-size:22px;}
	.st39{font-size:20px;}
	.st40{font-size:24.1493px;}
	.st41{fill:none;stroke:#BA9BC9;stroke-width:5;stroke-miterlimit:10;}
	.st42{fill:#FFF2EA;}
	.st43{fill:none;stroke:#837E78;stroke-width:2;stroke-miterlimit:10;}
	.st44{fill:#837E78;}
	.st45{fill:none;stroke:#FAE392;stroke-width:5;stroke-miterlimit:10;}
	.st46{fill:#ED1C24;}
	.st47{font-family:'ComicSansMS-Bold';}
	.st48{font-size:54px;}
	.st49{opacity:0.8;fill:#FFFFFF;}
	.st50{font-size:30px;}
	.st51{font-size:50px;}
	.st52{fill:#F4CBCF;stroke:#F4CBCF;stroke-miterlimit:10;}
	.st53{fill:#F4CBCF;}
	.st54{fill:none;stroke:#F4CBCF;stroke-miterlimit:10;}
	.st55{fill:#FEDFCF;stroke:#FEDFCF;stroke-miterlimit:10;}
	.st56{fill:#FEDFCF;}
	.st57{fill:none;stroke:#FEDFCF;stroke-miterlimit:10;}
	.st58{fill:none;stroke:#29ABE2;stroke-width:3;stroke-miterlimit:10;}
	.st59{fill:#D3D0E1;stroke:#D3D0E1;stroke-miterlimit:10;}
	.st60{fill:#D3D0E1;}
	.st61{fill:none;stroke:#D3D0E1;stroke-miterlimit:10;}
	.st62{fill:#ED1C24;stroke:#F4CBCF;stroke-miterlimit:10;}
	.st63{opacity:0.5;fill:#FEDFCF;stroke:#FEDFCF;stroke-miterlimit:10;}
	.st64{fill:#ED1C24;stroke:#D3D0E1;stroke-miterlimit:10;}
	.st65{fill:#FBB33B;stroke:#000000;stroke-width:3;stroke-miterlimit:10;}
	.st66{font-size:26.83px;}
	.st67{font-size:19px;}
	.st68{fill:#FFF2EA;stroke:#837E78;stroke-width:3;stroke-miterlimit:10;}
	.st69{font-size:25px;}
	.st70{font-family:'TimesNewRomanPSMT';}
	.st71{font-size:59px;}
	.st72{fill:url(#SVGID_2_);}
	.st73{font-size:37px;}
	.st74{opacity:0.5;fill:#8CC63F;stroke:#009245;stroke-width:3;stroke-miterlimit:10;}
	.st75{fill:url(#SVGID_3_);}
	.st76{font-size:32px;}
	.st77{font-size:27px;}
	.st78{font-size:26.4168px;}
	.st79{fill:#FFFFFF;stroke:#837E78;stroke-width:2;stroke-miterlimit:10;}
	.st80{font-size:35px;}
	.st81{font-size:26px;}
	.st82{fill:#E6E6E6;stroke:#000000;stroke-width:2;stroke-miterlimit:10;stroke-dasharray:12;}
	.st83{opacity:0.7;fill:#E6E6E6;stroke:#000000;stroke-width:2;stroke-miterlimit:10;stroke-dasharray:12;}
</style>
<g class="st0">
	<rect x="35.6" y="36.5" class="st1" width="915.9" height="1402.1"/>
	<g>
		<polyline class="st2" points="951.5,1432.6 951.5,1438.6 945.5,1438.6 		"/>
		<line class="st3" x1="933.5" y1="1438.6" x2="47.6" y2="1438.6"/>
		<polyline class="st2" points="41.6,1438.6 35.6,1438.6 35.6,1432.6 		"/>
		<line class="st4" x1="35.6" y1="1420.5" x2="35.6" y2="48.6"/>
		<polyline class="st2" points="35.6,42.5 35.6,36.5 41.6,36.5 		"/>
		<line class="st3" x1="53.7" y1="36.5" x2="939.5" y2="36.5"/>
		<polyline class="st2" points="945.5,36.5 951.5,36.5 951.5,42.5 		"/>
		<line class="st4" x1="951.5" y1="54.6" x2="951.5" y2="1426.6"/>
	</g>
</g>
<rect x="50.5" y="116.4" class="st5" width="248.9" height="711.6"/>
<g class="st0">
	<rect x="983.4" y="37.9" class="st1" width="1844.6" height="741.8"/>
	<g>
		<polyline class="st2" points="2828,773.6 2828,779.6 2822,779.6 		"/>
		<line class="st6" x1="2810" y1="779.6" x2="995.4" y2="779.6"/>
		<polyline class="st2" points="989.4,779.6 983.4,779.6 983.4,773.6 		"/>
		<line class="st7" x1="983.4" y1="761.7" x2="983.4" y2="49.8"/>
		<polyline class="st2" points="983.4,43.9 983.4,37.9 989.4,37.9 		"/>
		<line class="st6" x1="1001.4" y1="37.9" x2="2816" y2="37.9"/>
		<polyline class="st2" points="2822,37.9 2828,37.9 2828,43.9 		"/>
		<line class="st7" x1="2828" y1="55.8" x2="2828" y2="767.6"/>
	</g>
</g>
<path class="st8" d="M2716.8,728.3H1116.3c-23.4,0-42.4-19-42.4-42.4V136.1c0-23.4,19-42.4,42.4-42.4h1600.5
	c23.4,0,42.4,19,42.4,42.4v549.7C2759.3,709.3,2740.3,728.3,2716.8,728.3z"/>
<rect x="1465.3" y="262.9" class="st9" width="53.3" height="161.3"/>
<g class="st0">
	<rect x="984.8" y="825.1" class="st1" width="1841.9" height="613"/>
	<g>
		<polyline class="st2" points="2826.6,1432.1 2826.6,1438.1 2820.6,1438.1 		"/>
		<line class="st10" x1="2808.7" y1="1438.1" x2="996.8" y2="1438.1"/>
		<polyline class="st2" points="990.8,1438.1 984.8,1438.1 984.8,1432.1 		"/>
		<line class="st11" x1="984.8" y1="1420.3" x2="984.8" y2="837"/>
		<polyline class="st2" points="984.8,831.1 984.8,825.1 990.8,825.1 		"/>
		<line class="st10" x1="1002.7" y1="825.1" x2="2814.7" y2="825.1"/>
		<polyline class="st2" points="2820.6,825.1 2826.6,825.1 2826.6,831.1 		"/>
		<line class="st11" x1="2826.6" y1="842.9" x2="2826.6" y2="1426.2"/>
	</g>
</g>
<rect x="676.4" y="115.8" class="st5" width="248.9" height="711.6"/>
<g class="st12">
	<polyline class="st13" points="1798.7,976.2 1798.7,1019 1843.3,1019 1843.3,976.2 	"/>
	<g>
		<line class="st14" x1="1798.7" y1="976.2" x2="1798.7" y2="979.2"/>
		<line class="st15" x1="1798.7" y1="984.5" x2="1798.7" y2="1013.3"/>
		<polyline class="st14" points="1798.7,1016 1798.7,1019 1801.7,1019 		"/>
		<line class="st16" x1="1807.2" y1="1019" x2="1837.5" y2="1019"/>
		<polyline class="st14" points="1840.3,1019 1843.3,1019 1843.3,1016 		"/>
		<line class="st15" x1="1843.3" y1="1010.7" x2="1843.3" y2="981.8"/>
		<line class="st14" x1="1843.3" y1="979.2" x2="1843.3" y2="976.2"/>
	</g>
</g>
<path class="st17" d="M1408.4,1250.9h-205.6c-8.9,0-16.1-7.2-16.1-16.1v-5.8c0-8.9,7.2-16.1,16.1-16.1h205.6
	c8.9,0,16.1,7.2,16.1,16.1v5.8C1424.6,1243.7,1417.4,1250.9,1408.4,1250.9z"/>
<path class="st18" d="M1408.4,1168.9h-205.6c-8.9,0-16.1-7.2-16.1-16.1v-5.8c0-8.9,7.2-16.1,16.1-16.1h205.6
	c8.9,0,16.1,7.2,16.1,16.1v5.8C1424.6,1161.7,1417.4,1168.9,1408.4,1168.9z"/>
<path class="st19" d="M1408.4,1092.5h-205.6c-8.9,0-16.1-7.2-16.1-16.1v-5.8c0-8.9,7.2-16.1,16.1-16.1h205.6
	c8.9,0,16.1,7.2,16.1,16.1v5.8C1424.6,1085.3,1417.4,1092.5,1408.4,1092.5z"/>
<path class="st20" d="M1408.4,1016.3h-205.6c-8.9,0-16.1-7.2-16.1-16.1v-5.8c0-8.9,7.2-16.1,16.1-16.1h205.6
	c8.9,0,16.1,7.2,16.1,16.1v5.8C1424.6,1009.1,1417.4,1016.3,1408.4,1016.3z"/>
<text transform="matrix(0.9775 0 0 1 1217.0199 1005.6171)" class="st21 st22">Code Segment</text>
<text transform="matrix(0.9775 0 0 1 1213.4379 1081.8602)" class="st21 st22">AST Segment</text>
<path class="st23" d="M871.5,984.4H740.3c-11.2,0-20.3-9.1-20.3-20.3v-51.3c0-11.2,9.1-20.3,20.3-20.3h131.1
	c11.2,0,20.3,9.1,20.3,20.3v51.3C891.8,975.3,882.7,984.4,871.5,984.4z"/>
<text transform="matrix(0.9775 0 0 1 776.1765 928.9211)"><tspan x="0" y="0" class="st21 st22">CWE</tspan><tspan x="-33.5" y="32.2" class="st21 st22">knowledge</tspan></text>
<polygon class="st24" points="1995.2,1079.1 2085.5,1079.1 2110,1138.1 2085.5,1197.2 1995.2,1197.2 "/>
<text transform="matrix(0.9775 0 0 1 2000.9208 1147.1459)" class="st21 st22">encoder</text>
<rect x="1551.9" y="1115.7" transform="matrix(6.123234e-17 -1 1 6.123234e-17 530.4916 2806.51)" class="st20" width="233.3" height="44.6"/>
<line class="st20" x1="1646.2" y1="1214.5" x2="1690.8" y2="1214.5"/>
<line class="st20" x1="1646.2" y1="1194.3" x2="1690.8" y2="1194.3"/>
<line class="st20" x1="1646.2" y1="1174.2" x2="1690.8" y2="1174.2"/>
<text transform="matrix(0.9775 0 0 1 2538.8799 1379.2767)" class="st21 st22">Fixed Code</text>
<text transform="matrix(0.9775 0 0 1 767.7499 1422.9851)" class="st21 st25">CWE Tree</text>
<polygon class="st20" points="1482.9,1121.6 1585.4,1121.6 1613.2,1140.1 1585.4,1158.5 1482.9,1158.5 "/>
<linearGradient id="SVGID_1_" gradientUnits="userSpaceOnUse" x1="1021.832" y1="1070.147" x2="1186.5554" y2="1070.147" gradientTransform="matrix(1 0 0 1 -129.5989 91.986)">
	<stop  offset="0" style="stop-color:#FFFFFF"/>
	<stop  offset="1" style="stop-color:#000000"/>
</linearGradient>
<path class="st26" d="M1034.8,1198.1c-7.1-0.6-14.6-0.6-22.3,0c-54.2,4.3-95.6,38.8-120.2,64.8l0-201.5
	c24.6,26,66.1,60.5,120.2,64.8c7.8,0.6,15.2,0.6,22.3,0v-24l22.2,59.9l-21.9,58.1L1034.8,1198.1z"/>
<polyline class="st14" points="1170.1,989.5 1155.6,989.5 1155.6,1318 1170.1,1318 "/>
<text transform="matrix(0.9775 0 0 1 1227.5986 1159.1864)" class="st21 st22">CWE Name</text>
<image style="overflow:visible;" width="153" height="55" xlink:href="作图素材/cwe_logo.jpg"  transform="matrix(1.4243 0 0 2.4739 690.3962 153.9582)">
</image>
<image style="overflow:visible;" width="200" height="200" xlink:href="作图素材/组织架构.png"  transform="matrix(0.3717 0 0 0.3803 791.4595 1307.3142)">
</image>
<line class="st20" x1="1646.2" y1="1153.1" x2="1690.8" y2="1153.1"/>
<line class="st20" x1="1646.2" y1="1132.9" x2="1690.8" y2="1132.9"/>
<line class="st20" x1="1645.1" y1="1113" x2="1689.7" y2="1113"/>
<line class="st20" x1="1646.2" y1="1093.2" x2="1690.8" y2="1093.2"/>
<line class="st20" x1="1646.2" y1="1073.3" x2="1690.8" y2="1073.3"/>
<line class="st20" x1="1646.2" y1="1055.7" x2="1690.8" y2="1055.7"/>
<line class="st20" x1="1645.1" y1="1038.2" x2="1689.7" y2="1038.2"/>
<line class="st20" x1="1645.1" y1="1234.7" x2="1689.7" y2="1234.7"/>
<rect x="1799.6" y="932.5" transform="matrix(6.123234e-17 -1 1 6.123234e-17 866.1523 2775.8201)" class="st20" width="42.8" height="44.6"/>
<g>
	<line class="st13" x1="1798.1" y1="1005.1" x2="1842.7" y2="1005.1"/>
	<g>
		<line class="st14" x1="1798.1" y1="1005.1" x2="1801.1" y2="1005.1"/>
		<line class="st16" x1="1806.6" y1="1005.1" x2="1837" y2="1005.1"/>
		<line class="st14" x1="1839.7" y1="1005.1" x2="1842.7" y2="1005.1"/>
	</g>
</g>
<g>
	<line class="st13" x1="1798.7" y1="989.5" x2="1843.3" y2="989.5"/>
	<g>
		<line class="st14" x1="1798.7" y1="989.5" x2="1801.7" y2="989.5"/>
		<line class="st16" x1="1807.2" y1="989.5" x2="1837.5" y2="989.5"/>
		<line class="st14" x1="1840.3" y1="989.5" x2="1843.3" y2="989.5"/>
	</g>
</g>
<line class="st20" x1="1798.7" y1="960.3" x2="1843.3" y2="960.3"/>
<line class="st20" x1="1797.5" y1="946.6" x2="1842.2" y2="946.6"/>
<g class="st12">
	<polyline class="st13" points="1842.7,1306.2 1842.7,1263.4 1798.1,1263.4 1798.1,1306.2 	"/>
	<g>
		<line class="st14" x1="1842.7" y1="1306.2" x2="1842.7" y2="1303.2"/>
		<line class="st15" x1="1842.7" y1="1297.9" x2="1842.7" y2="1269.1"/>
		<polyline class="st14" points="1842.7,1266.4 1842.7,1263.4 1839.7,1263.4 		"/>
		<line class="st16" x1="1834.2" y1="1263.4" x2="1803.9" y2="1263.4"/>
		<polyline class="st14" points="1801.1,1263.4 1798.1,1263.4 1798.1,1266.4 		"/>
		<line class="st15" x1="1798.1" y1="1271.7" x2="1798.1" y2="1300.6"/>
		<line class="st14" x1="1798.1" y1="1303.2" x2="1798.1" y2="1306.2"/>
	</g>
</g>
<rect x="1799" y="1305.3" transform="matrix(3.194442e-07 1 -1 3.194442e-07 3147.9705 -492.8609)" class="st20" width="42.8" height="44.6"/>
<g>
	<line class="st13" x1="1843.3" y1="1277.3" x2="1798.7" y2="1277.3"/>
	<g>
		<line class="st14" x1="1843.3" y1="1277.3" x2="1840.3" y2="1277.3"/>
		<line class="st16" x1="1834.8" y1="1277.3" x2="1804.4" y2="1277.3"/>
		<line class="st14" x1="1801.7" y1="1277.3" x2="1798.7" y2="1277.3"/>
	</g>
</g>
<g>
	<line class="st13" x1="1842.7" y1="1292.9" x2="1798.1" y2="1292.9"/>
	<g>
		<line class="st14" x1="1842.7" y1="1292.9" x2="1839.7" y2="1292.9"/>
		<line class="st16" x1="1834.2" y1="1292.9" x2="1803.9" y2="1292.9"/>
		<line class="st14" x1="1801.1" y1="1292.9" x2="1798.1" y2="1292.9"/>
	</g>
</g>
<line class="st20" x1="1842.7" y1="1322.1" x2="1798.1" y2="1322.1"/>
<line class="st20" x1="1843.9" y1="1335.8" x2="1799.3" y2="1335.8"/>
<g class="st12">
	<polyline class="st13" points="1798.1,1099.8 1798.1,1127.1 1842.7,1127.1 1842.7,1099.8 	"/>
	<g>
		<line class="st14" x1="1798.1" y1="1099.8" x2="1798.1" y2="1102.8"/>
		<line class="st27" x1="1798.1" y1="1109.9" x2="1798.1" y2="1120.5"/>
		<polyline class="st14" points="1798.1,1124.1 1798.1,1127.1 1801.1,1127.1 		"/>
		<line class="st16" x1="1806.6" y1="1127.1" x2="1837" y2="1127.1"/>
		<polyline class="st14" points="1839.7,1127.1 1842.7,1127.1 1842.7,1124.1 		"/>
		<line class="st27" x1="1842.7" y1="1117" x2="1842.7" y2="1106.4"/>
		<line class="st14" x1="1842.7" y1="1102.8" x2="1842.7" y2="1099.8"/>
	</g>
</g>
<rect x="1799" y="1056.1" transform="matrix(6.123234e-17 -1 1 6.123234e-17 741.9629 2898.8684)" class="st20" width="42.8" height="44.6"/>
<g>
	<line class="st13" x1="1798.1" y1="1113.1" x2="1842.7" y2="1113.1"/>
	<g>
		<line class="st14" x1="1798.1" y1="1113.1" x2="1801.1" y2="1113.1"/>
		<line class="st16" x1="1806.6" y1="1113.1" x2="1837" y2="1113.1"/>
		<line class="st14" x1="1839.7" y1="1113.1" x2="1842.7" y2="1113.1"/>
	</g>
</g>
<line class="st20" x1="1798.1" y1="1083.9" x2="1842.7" y2="1083.9"/>
<line class="st20" x1="1797" y1="1070.2" x2="1841.6" y2="1070.2"/>
<g class="st12">
	<polyline class="st13" points="1842.7,1056.1 1842.7,1042.4 1798.1,1042.4 1798.1,1056.1 	"/>
	<g>
		<line class="st14" x1="1842.7" y1="1056.1" x2="1842.7" y2="1053.1"/>
		<polyline class="st14" points="1842.7,1045.4 1842.7,1042.4 1839.7,1042.4 		"/>
		<line class="st16" x1="1834.2" y1="1042.4" x2="1803.9" y2="1042.4"/>
		<polyline class="st14" points="1801.1,1042.4 1798.1,1042.4 1798.1,1045.4 		"/>
		<line class="st14" x1="1798.1" y1="1053.1" x2="1798.1" y2="1056.1"/>
	</g>
</g>
<g class="st12">
	<polyline class="st13" points="1843.3,1181.3 1843.3,1154 1798.7,1154 1798.7,1181.3 	"/>
	<g>
		<line class="st14" x1="1843.3" y1="1181.3" x2="1843.3" y2="1178.3"/>
		<line class="st27" x1="1843.3" y1="1171.2" x2="1843.3" y2="1160.6"/>
		<polyline class="st14" points="1843.3,1157 1843.3,1154 1840.3,1154 		"/>
		<line class="st16" x1="1834.8" y1="1154" x2="1804.4" y2="1154"/>
		<polyline class="st14" points="1801.7,1154 1798.7,1154 1798.7,1157 		"/>
		<line class="st27" x1="1798.7" y1="1164.1" x2="1798.7" y2="1174.7"/>
		<line class="st14" x1="1798.7" y1="1178.3" x2="1798.7" y2="1181.3"/>
	</g>
</g>
<rect x="1799.6" y="1180.4" transform="matrix(-1.836970e-16 1 -1 -1.836970e-16 3023.6499 -618.3227)" class="st20" width="42.8" height="44.6"/>
<g>
	<line class="st13" x1="1843.3" y1="1168" x2="1798.7" y2="1168"/>
	<g>
		<line class="st14" x1="1843.3" y1="1168" x2="1840.3" y2="1168"/>
		<line class="st16" x1="1834.8" y1="1168" x2="1804.4" y2="1168"/>
		<line class="st14" x1="1801.7" y1="1168" x2="1798.7" y2="1168"/>
	</g>
</g>
<line class="st20" x1="1843.3" y1="1197.2" x2="1798.7" y2="1197.2"/>
<line class="st20" x1="1844.4" y1="1210.9" x2="1799.8" y2="1210.9"/>
<g class="st12">
	<polyline class="st13" points="1798.7,1225.1 1798.7,1238.7 1843.3,1238.7 1843.3,1225.1 	"/>
	<g>
		<line class="st14" x1="1798.7" y1="1225.1" x2="1798.7" y2="1228.1"/>
		<polyline class="st14" points="1798.7,1235.7 1798.7,1238.7 1801.7,1238.7 		"/>
		<line class="st16" x1="1807.2" y1="1238.7" x2="1837.5" y2="1238.7"/>
		<polyline class="st14" points="1840.3,1238.7 1843.3,1238.7 1843.3,1235.7 		"/>
		<line class="st14" x1="1843.3" y1="1228.1" x2="1843.3" y2="1225.1"/>
	</g>
</g>
<g>
	<path class="st28" d="M1696.3,1020.9c4.3,0,7.8,0.3,7.8,0.7v23.5c0,0.4,3.5,0.7,7.8,0.7c-4.3,0-7.8,0.3-7.8,0.7v23.5
		c0,0.4-3.5,0.7-7.8,0.7"/>
</g>
<g>
	<path class="st28" d="M1696.3,1079.1c4.3,0,7.8,0.3,7.8,0.7v23.5c0,0.4,3.5,0.7,7.8,0.7c-4.3,0-7.8,0.3-7.8,0.7v23.5
		c0,0.4-3.5,0.7-7.8,0.7"/>
</g>
<g>
	<path class="st28" d="M1696.3,1137.2c4.3,0,7.8,0.3,7.8,0.7v23.5c0,0.4,3.5,0.7,7.8,0.7c-4.3,0-7.8,0.3-7.8,0.7v23.5
		c0,0.4-3.5,0.7-7.8,0.7"/>
</g>
<g>
	<path class="st28" d="M1696.3,1202.7c4.3,0,7.8,0.3,7.8,0.7v23.5c0,0.4,3.5,0.7,7.8,0.7c-4.3,0-7.8,0.3-7.8,0.7v23.5
		c0,0.4-3.5,0.7-7.8,0.7"/>
</g>
<g>
	<g>
		<line class="st29" x1="1744.9" y1="1042.4" x2="1787.1" y2="983.6"/>
		<g>
			<path d="M1792.3,976.2c-1.2,4.4-2.1,10.3-1.7,14.6l-4.3-6.3l-7.3-2.1C1783.3,981.5,1788.6,978.8,1792.3,976.2z"/>
		</g>
	</g>
</g>
<g>
	<g>
		<line class="st29" x1="1744.9" y1="1104" x2="1781" y2="1087.6"/>
		<g>
			<path d="M1789.2,1083.9c-3.2,3.2-6.9,7.8-8.7,11.8l-0.6-7.6l-5.3-5.4C1778.8,1084,1784.7,1084.2,1789.2,1083.9z"/>
		</g>
	</g>
</g>
<g>
	<g>
		<line class="st29" x1="1744.9" y1="1162.6" x2="1782.1" y2="1191.6"/>
		<g>
			<path d="M1789.2,1197.2c-4.3-1.4-10.2-2.5-14.5-2.3l6.4-4l2.4-7.2C1784.3,1188,1786.8,1193.3,1789.2,1197.2z"/>
		</g>
	</g>
</g>
<g>
	<g>
		<line class="st29" x1="1744.9" y1="1227.6" x2="1784.8" y2="1298.3"/>
		<g>
			<path d="M1789.2,1306.2c-3.5-2.9-8.4-6.2-12.5-7.7l7.5-1.3l4.9-5.7C1788.3,1295.8,1788.5,1301.7,1789.2,1306.2z"/>
		</g>
	</g>
</g>
<g>
	<g>
		<path class="st30" d="M1884.5,976.8c10.5,8.6,17.6,16.8,22.1,22.9c6.6,8.8,14.6,19.7,16.3,34.8c0.6,5.5,0.1,8.4,0,11.9
			c-0.2,9.8,3.3,23.4,19.3,41.1"/>
		<g>
			<path d="M1948.6,1093.9c-4.1-2-9.7-3.9-14-4.3l6.9-3.1l3.4-6.8C1945.1,1084.1,1946.8,1089.8,1948.6,1093.9z"/>
		</g>
	</g>
</g>
<g>
	<g>
		<path class="st30" d="M1884.5,1311c10.5-9.5,17.6-18.6,22.1-25.3c6.6-9.7,14.6-21.8,16.3-38.5c0.6-6.1,0.1-9.3,0-13.2
			c-0.2-10.9,3.4-26.1,19.7-45.9"/>
		<g>
			<path d="M1948.6,1181.3c-1.6,4.3-3,10-3,14.4l-3.7-6.6l-7.1-2.7C1939.1,1185.7,1944.6,1183.5,1948.6,1181.3z"/>
		</g>
	</g>
</g>
<g>
	<g>
		<line class="st30" x1="1884.5" y1="1083.9" x2="1941.2" y2="1123.7"/>
		<g>
			<path d="M1948.6,1128.9c-4.4-1.2-10.3-2-14.6-1.5l6.2-4.4l2-7.3C1943.3,1119.9,1946,1125.2,1948.6,1128.9z"/>
		</g>
	</g>
</g>
<g>
	<g>
		<line class="st30" x1="1884.5" y1="1197.2" x2="1941.3" y2="1155.7"/>
		<g>
			<path d="M1948.6,1150.4c-2.5,3.8-5.2,9.1-6.1,13.3l-2.1-7.3l-6.3-4.2C1938.4,1152.5,1944.3,1151.6,1948.6,1150.4z"/>
		</g>
	</g>
</g>
<path class="st31" d="M2231.6,1338.2h-39c-9.6,0-17.4-8-17.4-17.8V970.8c0-9.8,7.8-17.8,17.4-17.8h39c9.6,0,17.4,8,17.4,17.8
	c0,21.9,0,43.7,0,65.6c0,94.7,0,189.3,0,284C2249.1,1321.5,2248.9,1327.9,2231.6,1338.2z"/>
<path class="st32" d="M2682.2,1240.1h-170.3c-26.1,0-47.2-21.1-47.2-47.2v-56.1c0-26.1,21.1-47.2,47.2-47.2h170.3
	c26.1,0,47.2,21.1,47.2,47.2v56.1C2729.4,1219,2708.3,1240.1,2682.2,1240.1z"/>
<rect x="2512.9" y="1210.4" class="st33" width="175.3" height="29.4"/>
<text transform="matrix(0.9775 0 0 1 2534.4463 1231.7173)" class="st21 st34">decoder layer</text>
<path class="st35" d="M2688.1,1176.5H2513c-6.2,0-11.2-5-11.2-11.2v-21.9c0-6.2,5-11.2,11.2-11.2h175.1c6.2,0,11.2,5,11.2,11.2v21.9
	C2699.3,1171.5,2694.3,1176.5,2688.1,1176.5z"/>
<g>
	<line x1="2600.6" y1="1242.8" x2="2600.6" y2="1279.3"/>
	<g>
		<line class="st32" x1="2600.6" y1="1242.8" x2="2600.6" y2="1267.3"/>
		<g>
			<path d="M2600.6,1279.3c-2.1-5.7-5.7-12.7-9.5-17.1l9.5,3.4l9.5-3.4C2606.3,1266.6,2602.7,1273.7,2600.6,1279.3z"/>
		</g>
	</g>
</g>
<line class="st32" x1="2600.6" y1="1208.6" x2="2600.6" y2="1177.4"/>
<g>
	<g>
		<line class="st32" x1="2600.6" y1="1021.1" x2="2600.6" y2="1116.8"/>
		<g>
			<path d="M2600.6,1128.9c-2.1-5.7-5.7-12.7-9.5-17.1l9.5,3.4l9.5-3.4C2606.3,1116.2,2602.7,1123.2,2600.6,1128.9z"/>
		</g>
	</g>
</g>
<text transform="matrix(0.9775 0 0 1 2515.4143 1161.083)" class="st21 st36">cross attention</text>
<g>
	<g>
		<path class="st32" d="M2256.5,980.9c20.8,0.3,36.4,4.1,45.7,7c29.9,9.3,60.8,29.6,67.4,54.1c1.8,6.8,1.2,11.6,5.4,28.6
			c2.9,11.7,4.4,17.6,7.6,23.2c8.3,14.5,23.7,22.7,34.8,28.6c23,12.3,47.3,17.4,65.2,19.7"/>
		<g>
			<path d="M2494.7,1143.3c-5.9,1.5-13.3,4.3-18,7.7l4.4-9.1l-2.4-9.8C2482.7,1136.3,2489.3,1140.6,2494.7,1143.3z"/>
		</g>
	</g>
</g>
<g>
	<g>
		<path class="st32" d="M2265.9,1064.4c4.1,0.8,8.8,2.2,13.6,4.8c5,2.6,14.1,7.5,18.7,17.5c3.9,8.6,0.7,12.8,5.4,29.4
			c0.8,2.9,2,7,3.9,11.1c0,0,6.5,14.2,24.1,25.4c16.4,10.4,78,20,162.4,17.5"/>
		<g>
			<path d="M2253.8,1063.6c5.5,2.5,12.2,6.7,16.3,10.8l-2.7-9.8l4.2-9.2C2266.9,1058.9,2259.6,1062,2253.8,1063.6z"/>
		</g>
	</g>
</g>
<path class="st37" d="M2444.2,1035h-90.6c-11.3,0-20.5-9.2-20.5-20.5v-32.8c0-11.3,9.2-20.5,20.5-20.5h90.6
	c11.3,0,20.5,9.2,20.5,20.5v32.8C2464.7,1025.8,2455.5,1035,2444.2,1035z"/>
<rect x="2280.2" y="1099.2" class="st37" width="73.1" height="34"/>
<text transform="matrix(0.9775 0 0 1 2288.4119 1119.8828)" class="st21 st38">query</text>
<text transform="matrix(0.9775 0 0 1 2353.7068 990.6922)"><tspan x="0" y="0" class="st21 st39">Retrieved</tspan><tspan x="-18" y="24" class="st21 st39">hidden states</tspan></text>
<text transform="matrix(0.9775 0 0 1 2182.2793 1073.891)"><tspan x="0" y="0" class="st21 st40">index</tspan><tspan x="18.1" y="36.7" class="st21 st40">of</tspan><tspan x="7.6" y="73.3" class="st21 st40">one </tspan><tspan x="8.2" y="110" class="st21 st40">long</tspan><tspan x="2.4" y="146.7" class="st21 st40">input</tspan></text>
<text transform="matrix(0.9775 0 0 1 1735.0682 1387.0287)" class="st21 st22">encode chunks</text>
<rect x="62.4" y="98.7" class="st41" width="859.5" height="241.4"/>
<g>
	<line class="st42" x1="723.4" y1="373.9" x2="723.4" y2="549.7"/>
	<g>
		<line class="st43" x1="723.4" y1="373.9" x2="723.4" y2="535.3"/>
		<g>
			<polygon class="st44" points="713.5,532.4 723.4,549.7 733.4,532.4 			"/>
		</g>
	</g>
</g>
<g>
	<line class="st42" x1="880.9" y1="373.3" x2="880.9" y2="549"/>
	<g>
		<line class="st43" x1="880.9" y1="373.3" x2="880.9" y2="534.7"/>
		<g>
			<polygon class="st44" points="870.9,531.7 880.9,549 890.8,531.7 			"/>
		</g>
	</g>
</g>
<g>
	<line class="st42" x1="841.9" y1="373.3" x2="841.9" y2="549"/>
	<g>
		<line class="st43" x1="841.9" y1="373.3" x2="841.9" y2="534.7"/>
		<g>
			<polygon class="st44" points="831.9,531.7 841.9,549 851.8,531.7 			"/>
		</g>
	</g>
</g>
<g>
	<line class="st42" x1="800.9" y1="373.3" x2="800.9" y2="549"/>
	<g>
		<line class="st43" x1="800.9" y1="373.3" x2="800.9" y2="534.7"/>
		<g>
			<polygon class="st44" points="790.9,531.7 800.9,549 810.8,531.7 			"/>
		</g>
	</g>
</g>
<g>
	<line class="st42" x1="762.4" y1="373.3" x2="762.4" y2="549"/>
	<g>
		<line class="st43" x1="762.4" y1="373.3" x2="762.4" y2="534.7"/>
		<g>
			<polygon class="st44" points="752.4,531.7 762.4,549 772.4,531.7 			"/>
		</g>
	</g>
</g>
<g>
	<line class="st42" x1="114.2" y1="389.5" x2="114.2" y2="548"/>
	<g>
		<line class="st43" x1="114.2" y1="389.5" x2="114.2" y2="533.7"/>
		<g>
			<polygon class="st44" points="104.3,530.8 114.2,548 124.2,530.8 			"/>
		</g>
	</g>
</g>
<g>
	<line class="st42" x1="145.7" y1="389.5" x2="145.7" y2="548"/>
	<g>
		<line class="st43" x1="145.7" y1="389.5" x2="145.7" y2="533.7"/>
		<g>
			<polygon class="st44" points="135.7,530.8 145.7,548 155.7,530.8 			"/>
		</g>
	</g>
</g>
<g>
	<line class="st42" x1="177.5" y1="389.5" x2="177.5" y2="548"/>
	<g>
		<line class="st43" x1="177.5" y1="389.5" x2="177.5" y2="533.7"/>
		<g>
			<polygon class="st44" points="167.6,530.8 177.5,548 187.5,530.8 			"/>
		</g>
	</g>
</g>
<g>
	<line class="st42" x1="207.5" y1="389.5" x2="207.5" y2="548"/>
	<g>
		<line class="st43" x1="207.5" y1="389.5" x2="207.5" y2="533.7"/>
		<g>
			<polygon class="st44" points="197.6,530.8 207.5,548 217.5,530.8 			"/>
		</g>
	</g>
</g>
<g>
	<line class="st42" x1="236.7" y1="389.5" x2="236.7" y2="548"/>
	<g>
		<line class="st43" x1="236.7" y1="389.5" x2="236.7" y2="533.7"/>
		<g>
			<polygon class="st44" points="226.8,530.8 236.7,548 246.7,530.8 			"/>
		</g>
	</g>
</g>
<rect x="63" y="562" class="st45" width="849.8" height="282"/>
<image style="overflow:visible;" width="200" height="200" xlink:href="作图素材/logo.png"  transform="matrix(1 0 0 1 387.9029 348.87)">
</image>
<text transform="matrix(1 0 0 1 315.6062 468.7702)" class="st46 st47 st48">RepairMaster</text>
<rect x="710.7" y="475.8" class="st49" width="181.5" height="38.5"/>
<text transform="matrix(1 0 0 1 701.7906 507.9621)" class="st21 st50">fixed example</text>
<rect x="742.1" y="430" class="st49" width="127.6" height="31.2"/>
<text transform="matrix(1 0 0 1 748.1591 454.1042)" class="st21 st50">Analysis</text>
<text transform="matrix(1 0 0 1 48.1499 80.2223)" class="st47 st51">(a)</text>
<text transform="matrix(1 0 0 1 1005.3231 80.2219)" class="st47 st51">(b)</text>
<text transform="matrix(1 0 0 1 1005.3232 876.503)" class="st47 st51">(c)</text>
<rect x="101.5" y="457.1" class="st49" width="138.9" height="30.2"/>
<text transform="matrix(1 0 0 1 100.7843 482.4505)" class="st21 st50">history fix</text>
<path class="st52" d="M564.5,693.6L564.5,693.6c-5,0-9-4-9-9l0,0c0-5,4-9,9-9h0c5,0,9,4,9,9l0,0
	C573.4,689.5,569.4,693.6,564.5,693.6z"/>
<path class="st52" d="M517,696.7L517,696.7c-5,0-9-4-9-9l0,0c0-5,4-9,9-9h0c5,0,9,4,9,9l0,0C526,692.7,522,696.7,517,696.7z"/>
<g>
	<line class="st53" x1="525.1" y1="693" x2="551" y2="713"/>
	<g>
		<line class="st54" x1="525.1" y1="693" x2="546.3" y2="709.3"/>
		<g>
			<polygon class="st53" points="541.8,710.5 545.3,708.6 546.3,704.7 551,713 			"/>
		</g>
	</g>
</g>
<path class="st55" d="M470.2,784.9L470.2,784.9c-5,0-9-4-9-9l0,0c0-5,4-9,9-9h0c5,0,9,4,9,9l0,0
	C479.2,780.9,475.2,784.9,470.2,784.9z"/>
<path class="st55" d="M522.7,761.9L522.7,761.9c-5,0-9-4-9-9l0,0c0-5,4-9,9-9h0c5,0,9,4,9,9l0,0
	C531.7,757.9,527.7,761.9,522.7,761.9z"/>
<path class="st55" d="M444.5,778.3L444.5,778.3c-5,0-9-4-9-9v0c0-5,4-9,9-9h0c5,0,9,4,9,9v0C453.5,774.3,449.5,778.3,444.5,778.3z"
	/>
<path class="st55" d="M499.5,779.9L499.5,779.9c-5,0-9-4-9-9l0,0c0-5,4-9,9-9h0c5,0,9,4,9,9l0,0
	C508.5,775.8,504.5,779.9,499.5,779.9z"/>
<g>
	<line class="st56" x1="471.2" y1="740.8" x2="469.2" y2="767"/>
	<g>
		<line class="st57" x1="471.2" y1="740.8" x2="469.7" y2="761"/>
		<g>
			<polygon class="st56" points="466.2,757.9 469.8,759.8 473.6,758.5 469.2,767 			"/>
		</g>
	</g>
</g>
<g>
	<line class="st56" x1="478.8" y1="731.9" x2="513.7" y2="748.3"/>
	<g>
		<line class="st57" x1="478.8" y1="731.9" x2="508.3" y2="745.8"/>
		<g>
			<polygon class="st56" points="504.2,748 507.2,745.3 507.4,741.3 513.7,748.3 			"/>
		</g>
	</g>
</g>
<g>
	<line class="st56" x1="465.3" y1="736.3" x2="446.9" y2="760.3"/>
	<g>
		<line class="st57" x1="465.3" y1="736.3" x2="450.5" y2="755.6"/>
		<g>
			<polygon class="st56" points="449.3,751.1 451.3,754.6 455.2,755.6 446.9,760.3 			"/>
		</g>
	</g>
</g>
<g>
	<line class="st56" x1="479.2" y1="737.9" x2="495.7" y2="764"/>
	<g>
		<line class="st57" x1="479.2" y1="737.9" x2="492.5" y2="759"/>
		<g>
			<polygon class="st56" points="487.9,758.6 491.8,757.9 494.1,754.6 495.7,764 			"/>
		</g>
	</g>
</g>
<path class="st58" d="M542,813.8H423.7c-25.1,0-45.4-20.3-45.4-45.4V634.8c0-25.1,20.3-45.4,45.4-45.4H542
	c25.1,0,45.4,20.3,45.4,45.4v133.6C587.4,793.4,567.1,813.8,542,813.8z"/>
<path class="st55" d="M471.3,740.8L471.3,740.8c-5,0-9-4-9-9l0,0c0-5,4-9,9-9h0c5,0,9,4,9,9l0,0
	C480.2,736.8,476.2,740.8,471.3,740.8z"/>
<g>
	<line class="st53" x1="508.5" y1="692.5" x2="475.7" y2="722.9"/>
	<g>
		<line class="st54" x1="508.5" y1="692.5" x2="480.1" y2="718.8"/>
		<g>
			<polygon class="st53" points="479.7,714.2 481,718 484.7,719.6 475.7,722.9 			"/>
		</g>
	</g>
</g>
<g>
	<line class="st56" x1="505.8" y1="774.9" x2="526.4" y2="794.9"/>
	<g>
		<line class="st57" x1="505.8" y1="774.9" x2="522.1" y2="790.8"/>
		<g>
			<polygon class="st56" points="517.5,791.5 521.2,789.9 522.7,786.2 526.4,794.9 			"/>
		</g>
	</g>
</g>
<path class="st55" d="M531.7,809.8L531.7,809.8c-5,0-9-4-9-9l0,0c0-5,4-9,9-9h0c5,0,9,4,9,9l0,0
	C540.7,805.8,536.7,809.8,531.7,809.8z"/>
<path class="st59" d="M438,653.4L438,653.4c4.5-2,9.9,0,11.9,4.5l0,0.1c2,4.5,0,9.8-4.6,11.8l0,0c-4.5,2-9.9,0-11.9-4.5l0-0.1
	C431.4,660.7,433.4,655.4,438,653.4z"/>
<path class="st59" d="M399.4,695.7L399.4,695.7c4.5-2,9.9,0,11.9,4.5l0,0.1c2,4.5,0,9.8-4.6,11.8l0,0c-4.5,2-9.9,0-11.9-4.5l0-0.1
	C392.9,703,394.9,697.7,399.4,695.7z"/>
<path class="st59" d="M464.2,649.1L464.2,649.1c4.5-2,9.9,0,11.9,4.5l0,0.1c2,4.5,0,9.8-4.6,11.8h0c-4.5,2-9.9,0-11.9-4.5l0-0.1
	C457.6,656.4,459.7,651.1,464.2,649.1z"/>
<path class="st59" d="M413.3,669.9L413.3,669.9c4.5-2,9.9,0,11.9,4.5l0,0.1c2,4.5,0,9.8-4.6,11.8l0,0c-4.5,2-9.9,0-11.9-4.5l0-0.1
	C406.7,677.2,408.8,671.9,413.3,669.9z"/>
<g>
	<line class="st60" x1="455.1" y1="694.1" x2="446.3" y2="669.4"/>
	<g>
		<line class="st61" x1="455.1" y1="694.1" x2="448.3" y2="675"/>
		<g>
			<polygon class="st60" points="452.7,676.4 448.7,676.2 445.7,678.9 446.3,669.4 			"/>
		</g>
	</g>
</g>
<g>
	<line class="st60" x1="451.8" y1="705.3" x2="413.2" y2="704.4"/>
	<g>
		<line class="st61" x1="451.8" y1="705.3" x2="419.2" y2="704.6"/>
		<g>
			<polygon class="st60" points="422.1,700.9 420.4,704.6 421.9,708.3 413.2,704.4 			"/>
		</g>
	</g>
</g>
<g>
	<line class="st60" x1="462.4" y1="695.8" x2="469.4" y2="666.4"/>
	<g>
		<line class="st61" x1="462.4" y1="695.8" x2="468" y2="672.3"/>
		<g>
			<polygon class="st60" points="470.9,675.8 467.7,673.5 463.7,674.1 469.4,666.4 			"/>
		</g>
	</g>
</g>
<g>
	<line class="st60" x1="449" y1="700" x2="423.3" y2="682.8"/>
	<g>
		<line class="st61" x1="449" y1="700" x2="428.3" y2="686.1"/>
		<g>
			<polygon class="st60" points="432.7,684.6 429.3,686.8 428.5,690.8 423.3,682.8 			"/>
		</g>
	</g>
</g>
<path class="st59" d="M455.1,694.1L455.1,694.1c4.5-2,9.9,0,11.9,4.5l0,0.1c2,4.5,0,9.8-4.6,11.8h0c-4.5,2-9.9,0-11.9-4.5l0-0.1
	C448.5,701.4,450.6,696.1,455.1,694.1z"/>
<g>
	<line class="st60" x1="441.3" y1="651.6" x2="449" y2="618.2"/>
	<g>
		<line class="st61" x1="441.3" y1="651.6" x2="447.7" y2="624"/>
		<g>
			<polygon class="st60" points="450.7,627.6 447.4,625.2 443.4,625.9 449,618.2 			"/>
		</g>
	</g>
</g>
<path class="st59" d="M447,601.1L447,601.1c4.5-2,9.9,0,11.9,4.5l0,0.1c2,4.5,0,9.8-4.6,11.8h0c-4.5,2-9.9,0-11.9-4.5l0-0.1
	C440.4,608.4,442.5,603.2,447,601.1z"/>
<g>
	<line class="st60" x1="464.2" y1="649.1" x2="454.4" y2="617.6"/>
	<g>
		<line class="st61" x1="464.2" y1="649.1" x2="456.1" y2="623.3"/>
		<g>
			<polygon class="st60" points="460.5,624.8 456.5,624.4 453.4,627 454.4,617.6 			"/>
		</g>
	</g>
</g>
<g>
	<line class="st53" x1="526" y1="687.7" x2="555.5" y2="684.6"/>
	<g>
		<line class="st54" x1="526" y1="687.7" x2="549.5" y2="685.2"/>
		<g>
			<polygon class="st53" points="547.1,689.2 548.3,685.4 546.3,681.8 555.5,684.6 			"/>
		</g>
	</g>
</g>
<path class="st52" d="M560,722L560,722c-5,0-9-4-9-9l0,0c0-5,4-9,9-9h0c5,0,9,4,9,9l0,0C569,717.9,565,722,560,722z"/>
<path class="st52" d="M553.5,669.7L553.5,669.7c-5,0-9-4-9-9v0c0-5,4-9,9-9h0c5,0,9,4,9,9v0C562.5,665.6,558.5,669.7,553.5,669.7z"
	/>
<g>
	<line class="st53" x1="523.3" y1="681.8" x2="545.6" y2="665"/>
	<g>
		<line class="st54" x1="523.3" y1="681.8" x2="540.9" y2="668.6"/>
		<g>
			<polygon class="st53" points="540.8,673.3 539.9,669.3 536.4,667.3 545.6,665 			"/>
		</g>
	</g>
</g>
<g>
	<g>
		<line class="st32" x1="581.4" y1="226.1" x2="671.4" y2="226.1"/>
		<g>
			<path d="M683.5,226.1c-5.7,2.1-12.7,5.7-17.1,9.5l3.4-9.5l-3.4-9.5C670.8,220.4,677.8,224,683.5,226.1z"/>
		</g>
	</g>
</g>
<text transform="matrix(0.9775 0 0 1 371.5365 837.5557)" class="st21 st22">Historical patch KG</text>
<image style="overflow:visible;" width="200" height="200" xlink:href="作图素材/知识库.png"  transform="matrix(0.7301 0 0 0.6876 722.7916 621.0408)">
</image>
<path class="st52" d="M725.4,1148.5h-1c-3.6,0-6.5-2.9-6.5-6.5l0,0c0-3.6,2.9-6.5,6.5-6.5h1c3.6,0,6.5,2.9,6.5,6.5l0,0
	C731.9,1145.6,729,1148.5,725.4,1148.5z"/>
<path class="st62" d="M688.8,1150.8h-1c-3.6,0-6.5-2.9-6.5-6.5l0,0c0-3.6,2.9-6.5,6.5-6.5h1c3.6,0,6.5,2.9,6.5,6.5l0,0
	C695.2,1147.9,692.3,1150.8,688.8,1150.8z"/>
<g>
	<line class="st53" x1="694.5" y1="1148.1" x2="714.6" y2="1162.5"/>
	<g>
		<line class="st54" x1="694.5" y1="1148.1" x2="709.7" y2="1159"/>
		<g>
			<polygon class="st53" points="705.3,1160.4 708.7,1158.3 709.6,1154.3 714.6,1162.5 			"/>
		</g>
	</g>
</g>
<path class="st63" d="M652.6,1214.3h-1c-3.6,0-6.5-2.9-6.5-6.5l0,0c0-3.6,2.9-6.5,6.5-6.5h1c3.6,0,6.5,2.9,6.5,6.5l0,0
	C659.1,1211.4,656.2,1214.3,652.6,1214.3z"/>
<path class="st63" d="M693.2,1197.7h-1c-3.6,0-6.5-2.9-6.5-6.5l0,0c0-3.6,2.9-6.5,6.5-6.5h1c3.6,0,6.5,2.9,6.5,6.5l0,0
	C699.7,1194.8,696.8,1197.7,693.2,1197.7z"/>
<path class="st63" d="M632.8,1209.5h-1c-3.6,0-6.5-2.9-6.5-6.5l0,0c0-3.6,2.9-6.5,6.5-6.5h1c3.6,0,6.5,2.9,6.5,6.5l0,0
	C639.2,1206.6,636.3,1209.5,632.8,1209.5z"/>
<path class="st63" d="M675.3,1210.6h-1c-3.6,0-6.5-2.9-6.5-6.5l0,0c0-3.6,2.9-6.5,6.5-6.5h1c3.6,0,6.5,2.9,6.5,6.5l0,0
	C681.7,1207.7,678.8,1210.6,675.3,1210.6z"/>
<g>
	<line class="st56" x1="653" y1="1182.5" x2="651.4" y2="1201.4"/>
	<g>
		<line class="st57" x1="653" y1="1182.5" x2="651.9" y2="1195.4"/>
		<g>
			<polygon class="st56" points="648.4,1192.3 652,1194.2 655.8,1192.9 651.4,1201.4 			"/>
		</g>
	</g>
</g>
<g>
	<line class="st56" x1="658.8" y1="1176.1" x2="685.8" y2="1187.9"/>
	<g>
		<line class="st57" x1="658.8" y1="1176.1" x2="680.3" y2="1185.5"/>
		<g>
			<polygon class="st56" points="676.2,1187.8 679.2,1185 679.2,1181 685.8,1187.9 			"/>
		</g>
	</g>
</g>
<g>
	<line class="st56" x1="648.4" y1="1179.3" x2="634.1" y2="1196.6"/>
	<g>
		<line class="st57" x1="648.4" y1="1179.3" x2="637.9" y2="1192"/>
		<g>
			<polygon class="st56" points="636.9,1187.5 638.7,1191 642.6,1192.2 634.1,1196.6 			"/>
		</g>
	</g>
</g>
<g>
	<line class="st56" x1="659.1" y1="1180.4" x2="671.8" y2="1199.2"/>
	<g>
		<line class="st57" x1="659.1" y1="1180.4" x2="668.5" y2="1194.3"/>
		<g>
			<polygon class="st56" points="663.8,1194 667.8,1193.3 670,1189.9 671.8,1199.2 			"/>
		</g>
	</g>
</g>
<path class="st58" d="M695,1235h-66.3c-26.3,0-47.6-21.3-47.6-47.6v-66.3c0-26.3,21.3-47.6,47.6-47.6H695
	c26.3,0,47.6,21.3,47.6,47.6v66.3C742.7,1213.7,721.4,1235,695,1235z"/>
<path class="st63" d="M653.4,1182.5h-1c-3.6,0-6.5-2.9-6.5-6.5l0,0c0-3.6,2.9-6.5,6.5-6.5h1c3.6,0,6.5,2.9,6.5,6.5l0,0
	C659.9,1179.6,657,1182.5,653.4,1182.5z"/>
<g>
	<line class="st53" x1="681.7" y1="1147.8" x2="656.4" y2="1169.6"/>
	<g>
		<line class="st54" x1="681.7" y1="1147.8" x2="660.9" y2="1165.7"/>
		<g>
			<polygon class="st53" points="660.6,1161.1 661.9,1164.9 665.5,1166.7 656.4,1169.6 			"/>
		</g>
	</g>
</g>
<g>
	<line class="st56" x1="679.6" y1="1207.1" x2="695.6" y2="1221.5"/>
	<g>
		<line class="st57" x1="679.6" y1="1207.1" x2="691.1" y2="1217.5"/>
		<g>
			<polygon class="st56" points="686.6,1218.3 690.2,1216.7 691.5,1212.9 695.6,1221.5 			"/>
		</g>
	</g>
</g>
<path class="st63" d="M700.1,1232.2h-1c-3.6,0-6.5-2.9-6.5-6.5l0,0c0-3.6,2.9-6.5,6.5-6.5h1c3.6,0,6.5,2.9,6.5,6.5l0,0
	C706.6,1229.3,703.7,1232.2,700.1,1232.2z"/>
<path class="st59" d="M627.3,1119.6L627.3,1119.6c3.5-1.4,7.6,0,9.2,3.3l0,0.1c1.6,3.2,0,7.1-3.5,8.5v0c-3.5,1.4-7.6,0-9.2-3.3
	l0-0.1C622.2,1124.8,623.8,1121,627.3,1119.6z"/>
<path class="st59" d="M597.5,1150L597.5,1150c3.5-1.4,7.6,0,9.2,3.3l0,0.1c1.6,3.2,0,7.1-3.5,8.5v0c-3.5,1.4-7.6,0-9.2-3.3l0-0.1
	C592.4,1155.3,594,1151.5,597.5,1150z"/>
<path class="st59" d="M647.5,1116.5L647.5,1116.5c3.5-1.4,7.6,0,9.2,3.3l0,0.1c1.6,3.2,0,7.1-3.5,8.5l0,0c-3.5,1.4-7.6,0-9.2-3.3
	l0-0.1C642.4,1121.7,644,1117.9,647.5,1116.5z"/>
<path class="st59" d="M608.2,1131.5L608.2,1131.5c3.5-1.4,7.6,0,9.2,3.3l0,0.1c1.6,3.2,0,7.1-3.5,8.5l0,0c-3.5,1.4-7.6,0-9.2-3.3
	l0-0.1C603.1,1136.7,604.7,1132.9,608.2,1131.5z"/>
<g>
	<line class="st60" x1="640.5" y1="1148.9" x2="633.7" y2="1131.1"/>
	<g>
		<line class="st61" x1="640.5" y1="1148.9" x2="635.8" y2="1136.7"/>
		<g>
			<polygon class="st60" points="640.3,1138 636.2,1137.8 633.4,1140.6 633.7,1131.1 			"/>
		</g>
	</g>
</g>
<g>
	<line class="st60" x1="638" y1="1157" x2="608.1" y2="1156.3"/>
	<g>
		<line class="st61" x1="638" y1="1157" x2="614.1" y2="1156.5"/>
		<g>
			<polygon class="st60" points="617,1152.8 615.3,1156.5 616.8,1160.2 608.1,1156.3 			"/>
		</g>
	</g>
</g>
<g>
	<line class="st60" x1="646.1" y1="1150.1" x2="651.5" y2="1129"/>
	<g>
		<line class="st61" x1="646.1" y1="1150.1" x2="650" y2="1134.8"/>
		<g>
			<polygon class="st60" points="652.9,1138.4 649.7,1136 645.7,1136.6 651.5,1129 			"/>
		</g>
	</g>
</g>
<g>
	<line class="st60" x1="635.8" y1="1153.1" x2="615.9" y2="1140.8"/>
	<g>
		<line class="st61" x1="635.8" y1="1153.1" x2="621" y2="1143.9"/>
		<g>
			<polygon class="st60" points="625.3,1142.3 622,1144.6 621.4,1148.6 615.9,1140.8 			"/>
		</g>
	</g>
</g>
<path class="st64" d="M640.5,1148.9L640.5,1148.9c3.5-1.4,7.6,0,9.2,3.3l0,0.1c1.6,3.2,0,7.1-3.5,8.5h0c-3.5,1.4-7.6,0-9.2-3.3
	l0-0.1C635.4,1154.2,637,1150.4,640.5,1148.9z"/>
<g>
	<line class="st60" x1="629.9" y1="1118.3" x2="635.8" y2="1094.2"/>
	<g>
		<line class="st61" x1="629.9" y1="1118.3" x2="634.3" y2="1100"/>
		<g>
			<polygon class="st60" points="637.3,1103.6 634.1,1101.2 630.1,1101.9 635.8,1094.2 			"/>
		</g>
	</g>
</g>
<path class="st59" d="M634.2,1082L634.2,1082c3.5-1.4,7.6,0,9.2,3.3l0,0.1c1.6,3.2,0,7.1-3.5,8.5l0,0c-3.5,1.4-7.6,0-9.2-3.3l0-0.1
	C629.2,1087.2,630.7,1083.4,634.2,1082z"/>
<g>
	<line class="st60" x1="647.5" y1="1116.5" x2="639.9" y2="1093.8"/>
	<g>
		<line class="st61" x1="647.5" y1="1116.5" x2="641.8" y2="1099.5"/>
		<g>
			<polygon class="st60" points="646.2,1100.9 642.2,1100.6 639.2,1103.3 639.9,1093.8 			"/>
		</g>
	</g>
</g>
<g>
	<line class="st53" x1="695.2" y1="1144.3" x2="718" y2="1142.1"/>
	<g>
		<line class="st54" x1="695.2" y1="1144.3" x2="712.1" y2="1142.6"/>
		<g>
			<polygon class="st53" points="709.6,1146.6 710.8,1142.8 708.9,1139.2 718,1142.1 			"/>
		</g>
	</g>
</g>
<path class="st52" d="M722,1168.9h-1c-3.6,0-6.5-2.9-6.5-6.5l0,0c0-3.6,2.9-6.5,6.5-6.5h1c3.6,0,6.5,2.9,6.5,6.5l0,0
	C728.5,1166,725.6,1168.9,722,1168.9z"/>
<path class="st52" d="M717,1131.3h-1c-3.6,0-6.5-2.9-6.5-6.5l0,0c0-3.6,2.9-6.5,6.5-6.5h1c3.6,0,6.5,2.9,6.5,6.5l0,0
	C723.5,1128.4,720.6,1131.3,717,1131.3z"/>
<g>
	<line class="st53" x1="693.2" y1="1140.1" x2="710.4" y2="1128"/>
	<g>
		<line class="st54" x1="693.2" y1="1140.1" x2="705.5" y2="1131.4"/>
		<g>
			<polygon class="st53" points="705.4,1136 704.5,1132.1 701.1,1130 710.4,1128 			"/>
		</g>
	</g>
</g>
<path class="st65" d="M1405.3,1337h-205.6c-8.9,0-16.1-7.2-16.1-16.1v-5.8c0-8.9,7.2-16.1,16.1-16.1h205.6c8.9,0,16.1,7.2,16.1,16.1
	v5.8C1421.5,1329.8,1414.3,1337,1405.3,1337z"/>
<text transform="matrix(0.9775 0 0 1 1191.1273 1326.3372)" class="st21 st66">Historical fix case</text>
<text transform="matrix(0.9775 0 0 1 62.3725 1200.6664)" class="st21 st22">Bad Code</text>
<text transform="matrix(1 0 0 1 195.0235 960.2897)" class="st21 st67">CWE Type</text>
<g>
	<g>
		<line class="st32" x1="170.9" y1="1077.9" x2="385.3" y2="884.6"/>
		<g>
			<path d="M394.2,876.5c-2.8,5.4-5.6,12.8-6.3,18.5l-3.8-9.4l-8.9-4.8C381,880.8,388.6,878.7,394.2,876.5z"/>
		</g>
	</g>
</g>
<g>
	<line x1="175" y1="1156.7" x2="240.1" y2="1156.7"/>
	<g>
		<line class="st32" x1="175" y1="1156.7" x2="226" y2="1156.7"/>
		<g>
			<polygon points="240.1,1156.7 220.2,1164.8 224.9,1156.7 220.2,1148.5 			"/>
		</g>
	</g>
</g>
<path class="st68" d="M380.2,1191.9H274.4c-12.8,0-23.1-10.4-23.1-23.1v-23.3c0-12.8,10.4-23.1,23.1-23.1h105.8
	c12.8,0,23.1,10.4,23.1,23.1v23.3C403.3,1181.6,393,1191.9,380.2,1191.9z"/>
<text transform="matrix(1 0 0 1 274.2434 1167.016)" class="st21 st69">CodeBert</text>
<image style="overflow:visible;" width="200" height="200" xlink:href="作图素材/检索.png"  transform="matrix(0.2911 0 0 0.2917 433.1339 1093.2145)">
</image>
<g>
	<g>
		<line class="st32" x1="416.8" y1="1156.7" x2="550.1" y2="1156.7"/>
		<g>
			<path d="M562.1,1156.7c-5.7,2.1-12.7,5.7-17.1,9.5l3.4-9.5l-3.4-9.5C549.4,1151,556.4,1154.6,562.1,1156.7z"/>
		</g>
	</g>
</g>
<g>
	<g>
		<line class="st32" x1="491" y1="876.5" x2="582.4" y2="1050.3"/>
		<g>
			<path d="M588,1060.9c-4.5-4-11-8.6-16.4-10.7l10-1.4l6.8-7.5C587.1,1047,587.2,1054.9,588,1060.9z"/>
		</g>
	</g>
</g>
<g>
	<g>
		<path class="st32" d="M659.9,1235.6l-0.4,48.3c-0.2,23.5-19,42.5-42.3,42.7l-91.6,0.7c-23.6,0.2-42.9-19.2-42.9-43.1v-110.8"/>
		<g>
			<path d="M482.7,1161.3c2.1,5.7,5.7,12.7,9.5,17.1l-9.5-3.4l-9.5,3.4C477,1174,480.6,1167,482.7,1161.3z"/>
		</g>
	</g>
</g>
<text transform="matrix(1 0 0 1 533.4626 1312)" class="st21 st69">Top-K</text>
<text transform="matrix(1 0 0 1 491.3561 1131.9745)" class="st21 st69">ANN</text>
<g>
	<line class="st42" x1="799.4" y1="796.7" x2="799.4" y2="878.4"/>
	<g>
		<line class="st43" x1="799.4" y1="796.7" x2="799.4" y2="864.1"/>
		<g>
			<polygon class="st44" points="789.4,861.1 799.4,878.4 809.3,861.1 			"/>
		</g>
	</g>
</g>
<image style="overflow:visible;" width="200" height="200" xlink:href="作图素材/数据汇集.png"  transform="matrix(0.5 0 0 0.5157 779.4845 1105.3976)">
</image>
<g>
	<g>
		<line class="st32" x1="745.3" y1="1154.8" x2="774" y2="1154.8"/>
		<g>
			<path d="M786.1,1154.8c-5.7,2.1-12.7,5.7-17.1,9.5l3.4-9.5l-3.4-9.5C773.4,1149.1,780.4,1152.7,786.1,1154.8z"/>
		</g>
	</g>
</g>
<g>
	<g>
		<line class="st32" x1="824" y1="999.6" x2="824" y2="1080.1"/>
		<g>
			<path d="M824,1092.1c-2.1-5.7-5.7-12.7-9.5-17.1l9.5,3.4l9.5-3.4C829.7,1079.4,826.1,1086.5,824,1092.1z"/>
		</g>
	</g>
</g>
<g>
	<line class="st42" x1="829.5" y1="1292.6" x2="829.5" y2="1216.7"/>
	<g>
		<line class="st32" x1="829.5" y1="1292.6" x2="829.5" y2="1228.8"/>
		<g>
			<path d="M829.5,1216.7c2.1,5.7,5.7,12.7,9.5,17.1l-9.5-3.4l-9.5,3.4C823.8,1229.4,827.4,1222.4,829.5,1216.7z"/>
		</g>
	</g>
</g>
<polygon class="st65" points="1482.9,1303.6 1585.4,1303.6 1613.2,1322.1 1585.4,1340.6 1482.9,1340.6 "/>
<text transform="matrix(0 -1 1 0 1538.4662 1278.4467)" class="st70 st71">......</text>
<rect x="727.4" y="386.1" class="st49" width="144.6" height="34"/>
<text transform="matrix(1 0 0 1 736.521 411.5844)" class="st21 st50">Type num</text>
<image style="overflow:visible;" width="200" height="200" xlink:href="作图素材/dataset.png"  transform="matrix(0.5944 0 0 0.5957 111.5053 152.4595)">
</image>
<text transform="matrix(0.9978 0 0 1 70.2423 303.8676)" class="st21 st50">Megavul dataset</text>
<g>
	<g>
		<line class="st32" x1="385.9" y1="226.1" x2="295.9" y2="226.1"/>
		<g>
			<path d="M283.8,226.1c5.7-2.1,12.7-5.7,17.1-9.5l-3.4,9.5l3.4,9.5C296.5,231.8,289.5,228.2,283.8,226.1z"/>
		</g>
	</g>
</g>
<linearGradient id="SVGID_2_" gradientUnits="userSpaceOnUse" x1="2020.2542" y1="723.4112" x2="2085.4509" y2="723.4112" gradientTransform="matrix(-1 0 0 -1 2682.4878 1429.7917)">
	<stop  offset="0" style="stop-color:#FFFFFF"/>
	<stop  offset="1" style="stop-color:#000000"/>
</linearGradient>
<path class="st72" d="M605.8,679.8c2.8,0.4,5.8,0.5,8.8,0c21.4-3.2,37.9-28.7,47.6-47.8v148.8c-9.7-19.2-26.2-44.7-47.6-47.8
	c-3.1-0.5-6-0.4-8.8,0v17.7l-8.8-44.3l8.7-42.9L605.8,679.8z"/>
<text transform="matrix(1.0437 0 0 1 136.2304 827.3405)" class="st21 st73">SPO</text>
<path class="st74" d="M108.3,657L108.3,657C92.7,657,80,644.3,80,628.7v0c0-15.7,12.7-28.3,28.3-28.3h0c15.7,0,28.3,12.7,28.3,28.3
	v0C136.7,644.3,124,657,108.3,657z"/>
<g>
	<line x1="149.6" y1="627" x2="210.8" y2="627"/>
	<g>
		<line class="st43" x1="149.6" y1="627" x2="208.4" y2="627"/>
		<g>
			<path class="st44" d="M194.7,636.6c-0.3-0.5-0.2-1.1,0.3-1.4l12.9-8.2l-12.9-8.2c-0.5-0.3-0.6-0.9-0.3-1.4s0.9-0.6,1.4-0.3
				l14.2,9.1c0.3,0.2,0.5,0.5,0.5,0.8s-0.2,0.7-0.5,0.8l-14.2,9.1c-0.2,0.1-0.4,0.2-0.5,0.2C195.2,637.1,194.9,636.9,194.7,636.6z"
				/>
		</g>
	</g>
</g>
<text transform="matrix(0 -1 1 0 177.3659 752.8411)" class="st70 st71">...</text>
<linearGradient id="SVGID_3_" gradientUnits="userSpaceOnUse" x1="437.502" y1="870.3944" x2="502.6989" y2="870.3944" gradientTransform="matrix(1 0 0 1 -129.5992 -164.0138)">
	<stop  offset="0" style="stop-color:#FFFFFF"/>
	<stop  offset="1" style="stop-color:#000000"/>
</linearGradient>
<path class="st75" d="M364.3,732.9c-2.8-0.4-5.8-0.5-8.8,0c-21.4,3.2-37.9,28.7-47.6,47.8l0-148.8c9.7,19.2,26.2,44.7,47.6,47.8
	c3.1,0.5,6,0.4,8.8,0l0-17.7l8.8,44.3l-8.7,42.9L364.3,732.9z"/>
<text transform="matrix(0.9775 0 0 1 724.8896 780.769)" class="st21 st76">knowledge</text>
<image style="overflow:visible;" width="233" height="200" xlink:href="作图素材/漏洞代码片段.png"  transform="matrix(0.4258 0 0 0.3402 58.7382 1098.8507)">
</image>
<image style="overflow:visible;" width="233" height="200" xlink:href="作图素材/修复代码片段.png"  transform="matrix(0.4258 0 0 0.3402 2548.1909 1283.8398)">
</image>
<image style="overflow:visible;" width="1024" height="1024" xlink:href="作图素材/FixMasterT5.png"  transform="matrix(0.1578 0 0 0.1578 2516.261 858.6892)">
</image>
<image style="overflow:visible;" width="200" height="200" xlink:href="作图素材/dataset.png"  transform="matrix(0.5944 0 0 0.5957 1212.1182 173.548)">
</image>
<text transform="matrix(0.9978 0 0 1 1204.7078 328.5287)" class="st21 st77">bug fixing</text>
<path class="st9" d="M1350.7,616.3h-182.3c-11.5,0-20.8-9.3-20.8-20.8v-68.7c0-11.5,9.3-20.8,20.8-20.8h182.3
	c11.5,0,20.8,9.3,20.8,20.8v68.7C1371.5,606.9,1362.2,616.3,1350.7,616.3z"/>
<text transform="matrix(0.9978 0 0 1 1182.6556 550.6318)"><tspan x="0" y="0" class="st21 st78">construction</tspan><tspan x="-30.1" y="31.7" class="st21 st78">contex generater</tspan></text>
<g>
	<g>
		<line class="st32" x1="1261.5" y1="348" x2="1261.5" y2="488.2"/>
		<g>
			<path d="M1261.5,500.3c-2.1-5.7-5.7-12.7-9.5-17.1l9.5,3.4l9.5-3.4C1267.2,487.6,1263.6,494.6,1261.5,500.3z"/>
		</g>
	</g>
</g>
<g>
	<g>
		<line class="st32" x1="1262.2" y1="391" x2="1442.6" y2="391"/>
		<g>
			<path d="M1454.7,391c-5.7,2.1-12.7,5.7-17.1,9.5l3.4-9.5l-3.4-9.5C1441.9,385.3,1449,388.9,1454.7,391z"/>
		</g>
	</g>
</g>
<g>
	<g>
		<line class="st32" x1="1375.2" y1="561.1" x2="1438" y2="561.1"/>
		<g>
			<path d="M1450.1,561.1c-5.7,2.1-12.7,5.7-17.1,9.5l3.4-9.5l-3.4-9.5C1437.4,555.4,1444.4,559,1450.1,561.1z"/>
		</g>
	</g>
</g>
<path class="st79" d="M1492,332.5L1492,332.5c-8.6,0-15.6-7-15.6-15.6v0c0-8.6,7-15.6,15.6-15.6l0,0c8.6,0,15.6,7,15.6,15.6v0
	C1507.6,325.5,1500.6,332.5,1492,332.5z"/>
<path class="st79" d="M1492,372.6L1492,372.6c-8.6,0-15.6-7-15.6-15.6v0c0-8.6,7-15.6,15.6-15.6l0,0c8.6,0,15.6,7,15.6,15.6v0
	C1507.6,365.6,1500.6,372.6,1492,372.6z"/>
<path class="st79" d="M1492,412.3L1492,412.3c-8.6,0-15.6-7-15.6-15.6v0c0-8.6,7-15.6,15.6-15.6l0,0c8.6,0,15.6,7,15.6,15.6v0
	C1507.6,405.3,1500.6,412.3,1492,412.3z"/>
<rect x="1465.3" y="489" class="st9" width="53.3" height="161.3"/>
<rect x="1476.4" y="527.4" class="st79" width="31.2" height="31.2"/>
<rect x="1476.4" y="567.5" class="st79" width="31.2" height="31.2"/>
<path class="st79" d="M1507.1,638.4h-30.2c-0.3,0-0.5-0.2-0.5-0.5v-30.2c0-0.3,0.2-0.5,0.5-0.5h30.2c0.3,0,0.5,0.2,0.5,0.5v30.2
	C1507.6,638.1,1507.4,638.4,1507.1,638.4z"/>
<g>
	<g>
		<line class="st32" x1="1540.9" y1="369.7" x2="1589" y2="410.3"/>
		<g>
			<path d="M1598.2,418.1c-5.7-2.1-13.4-3.9-19.2-3.8l8.8-5l3.5-9.5C1592.2,405.5,1595.2,412.8,1598.2,418.1z"/>
		</g>
	</g>
</g>
<g>
	<g>
		<line class="st32" x1="1545.4" y1="571.7" x2="1586" y2="523.5"/>
		<g>
			<path d="M1593.8,514.3c-2.1,5.7-3.9,13.4-3.8,19.2l-5-8.8l-9.5-3.5C1581.2,520.4,1588.5,517.3,1593.8,514.3z"/>
		</g>
	</g>
</g>
<rect x="1603.6" y="431.8" class="st9" width="100" height="71.6"/>
<g>
	<g>
		<line class="st32" x1="1710.3" y1="467.6" x2="1773.1" y2="467.6"/>
		<g>
			<path d="M1785.2,467.6c-5.7,2.1-12.7,5.7-17.1,9.5l3.4-9.5l-3.4-9.5C1772.4,461.9,1779.5,465.5,1785.2,467.6z"/>
		</g>
	</g>
</g>
<rect x="1791.6" y="326.5" class="st9" width="53.3" height="280.7"/>
<path class="st79" d="M1818.2,396.1L1818.2,396.1c-8.6,0-15.6-7-15.6-15.6v0c0-8.6,7-15.6,15.6-15.6l0,0c8.6,0,15.6,7,15.6,15.6v0
	C1833.8,389.2,1826.8,396.1,1818.2,396.1z"/>
<path class="st79" d="M1818.2,436.2L1818.2,436.2c-8.6,0-15.6-7-15.6-15.6v0c0-8.6,7-15.6,15.6-15.6l0,0c8.6,0,15.6,7,15.6,15.6v0
	C1833.8,429.3,1826.8,436.2,1818.2,436.2z"/>
<path class="st79" d="M1818.2,475.9L1818.2,475.9c-8.6,0-15.6-7-15.6-15.6v0c0-8.6,7-15.6,15.6-15.6l0,0c8.6,0,15.6,7,15.6,15.6v0
	C1833.8,469,1826.8,475.9,1818.2,475.9z"/>
<rect x="1802.6" y="484.4" class="st79" width="31.2" height="31.2"/>
<rect x="1802.6" y="524.5" class="st79" width="31.2" height="31.2"/>
<rect x="1802.6" y="564.2" class="st79" width="31.2" height="31.2"/>
<g>
	<g>
		<line class="st32" x1="1861.6" y1="432.3" x2="1974.1" y2="385.7"/>
		<g>
			<path d="M1985.2,381.1c-4.4,4.1-9.6,10.1-12.2,15.3l-0.5-10.1l-6.8-7.5C1971.3,380.7,1979.2,381.3,1985.2,381.1z"/>
		</g>
	</g>
</g>
<g>
	<g>
		<path class="st32" d="M1818.2,316.9v-69c0-18,14.6-32.6,32.6-32.6h73.6"/>
		<g>
			<path d="M1936.5,215.3c-5.7,2.1-12.7,5.7-17.1,9.5l3.4-9.5l-3.4-9.5C1923.8,209.6,1930.8,213.2,1936.5,215.3z"/>
		</g>
	</g>
</g>
<polygon class="st9" points="1939.3,134.5 1939.3,296.1 2007.4,257.7 2007.4,177.9 "/>
<polygon class="st9" points="2095.8,298.9 2095.8,137.3 2027.8,175.7 2027.8,255.5 "/>
<g>
	<g>
		<line class="st32" x1="1862.7" y1="467.6" x2="1973.2" y2="467.6"/>
		<g>
			<path d="M1985.2,467.6c-5.7,2.1-12.7,5.7-17.1,9.5l3.4-9.5l-3.4-9.5C1972.5,461.9,1979.6,465.5,1985.2,467.6z"/>
		</g>
	</g>
</g>
<g>
	<g>
		<line class="st32" x1="1861.5" y1="502.8" x2="1974.2" y2="553.6"/>
		<g>
			<path d="M1985.2,558.6c-6-0.4-13.9,0-19.5,1.6l7-7.3l0.8-10.1C1976,548.2,1980.9,554.3,1985.2,558.6z"/>
		</g>
	</g>
</g>
<rect x="1999.4" y="348.5" class="st9" width="56.7" height="56.7"/>
<rect x="1999.4" y="439.2" class="st9" width="56.7" height="56.7"/>
<rect x="1999.4" y="535.6" class="st9" width="56.7" height="56.7"/>
<g>
	<g>
		<line class="st32" x1="2064.8" y1="376.9" x2="2271" y2="376.9"/>
		<g>
			<path d="M2283.1,376.9c-5.7,2.1-12.7,5.7-17.1,9.5l3.4-9.5l-3.4-9.5C2270.4,371.2,2277.4,374.7,2283.1,376.9z"/>
		</g>
	</g>
</g>
<g>
	<g>
		<line class="st32" x1="2064.8" y1="466.9" x2="2158.3" y2="466.9"/>
		<g>
			<path d="M2170.4,466.9c-5.7,2.1-12.7,5.7-17.1,9.5l3.4-9.5l-3.4-9.5C2157.6,461.2,2164.7,464.8,2170.4,466.9z"/>
		</g>
	</g>
</g>
<g>
	<g>
		<line class="st32" x1="2065.7" y1="563.9" x2="2212.4" y2="563.9"/>
		<g>
			<path d="M2224.5,563.9c-5.7,2.1-12.7,5.7-17.1,9.5l3.4-9.5l-3.4-9.5C2211.8,558.2,2218.8,561.8,2224.5,563.9z"/>
		</g>
	</g>
</g>
<g>
	<g>
		<path class="st32" d="M2302.7,336.4v-88.6c0-18-14.6-32.6-32.6-32.6h-166.5"/>
		<g>
			<path d="M2302.7,348.5c2.1-5.7,5.7-12.7,9.5-17.1l-9.5,3.4l-9.5-3.4C2297,335.8,2300.6,342.8,2302.7,348.5z"/>
		</g>
	</g>
</g>
<path class="st9" d="M2305.9,395.3h-0.6c-11.6,0-20.9-9.4-20.9-20.9v-0.6c0-11.6,9.4-20.9,20.9-20.9h0.6c11.6,0,20.9,9.4,20.9,20.9
	v0.6C2326.8,385.9,2317.4,395.3,2305.9,395.3z"/>
<g>
	<g>
		<line class="st32" x1="2195" y1="215.3" x2="2195" y2="430"/>
		<g>
			<path d="M2195,442c-2.1-5.7-5.7-12.7-9.5-17.1l9.5,3.4l9.5-3.4C2200.7,429.3,2197.1,436.4,2195,442z"/>
		</g>
	</g>
</g>
<path class="st9" d="M2195.3,488.8h-0.6c-11.6,0-20.9-9.4-20.9-20.9v-0.6c0-11.6,9.4-20.9,20.9-20.9h0.6c11.6,0,20.9,9.4,20.9,20.9
	v0.6C2216.3,479.4,2206.9,488.8,2195.3,488.8z"/>
<g>
	<g>
		<line class="st32" x1="2245.8" y1="218.1" x2="2245.8" y2="530.6"/>
		<g>
			<path d="M2245.8,542.7c-2.1-5.7-5.7-12.7-9.5-17.1l9.5,3.4l9.5-3.4C2251.5,530,2247.9,537,2245.8,542.7z"/>
		</g>
	</g>
</g>
<path class="st9" d="M2246.1,585.2h-0.6c-11.6,0-20.9-9.4-20.9-20.9v-0.6c0-11.6,9.4-20.9,20.9-20.9h0.6c11.6,0,20.9,9.4,20.9,20.9
	v0.6C2267,575.8,2257.7,585.2,2246.1,585.2z"/>
<line class="st32" x1="2305.2" y1="352.8" x2="2305.9" y2="395.3"/>
<line class="st32" x1="2326.8" y1="373.7" x2="2284.3" y2="373.7"/>
<line class="st32" x1="2195.3" y1="446.3" x2="2195.3" y2="488.8"/>
<line class="st32" x1="2173.7" y1="467.9" x2="2216.3" y2="467.9"/>
<line class="st32" x1="2246.1" y1="542.7" x2="2245.5" y2="585.2"/>
<path class="st43" d="M2267,564.3"/>
<line class="st32" x1="2267" y1="564.3" x2="2224.5" y2="564.3"/>
<rect x="2398.5" y="425.8" class="st9" width="141.7" height="85"/>
<g>
	<g>
		<line class="st32" x1="2224.5" y1="467.9" x2="2377.7" y2="467.9"/>
		<g>
			<path d="M2389.8,467.9c-5.7,2.1-12.7,5.7-17.1,9.5l3.4-9.5l-3.4-9.5C2377,462.2,2384.1,465.8,2389.8,467.9z"/>
		</g>
	</g>
</g>
<g>
	<g>
		<line class="st32" x1="2337.4" y1="381.1" x2="2382.2" y2="436.9"/>
		<g>
			<path d="M2389.8,446.3c-5.2-3.1-12.4-6.4-18.1-7.4l9.6-3.3l5.3-8.6C2386.3,432.8,2387.9,440.6,2389.8,446.3z"/>
		</g>
	</g>
</g>
<g>
	<g>
		<line class="st32" x1="2283.1" y1="563.9" x2="2380.1" y2="491.6"/>
		<g>
			<path d="M2389.8,484.4c-3.3,5.1-6.8,12.2-8,17.8l-2.9-9.7l-8.4-5.6C2376.2,487.5,2384,486.1,2389.8,484.4z"/>
		</g>
	</g>
</g>
<g>
	<g>
		<line class="st32" x1="2553.3" y1="466.9" x2="2605.9" y2="466.9"/>
		<g>
			<path d="M2618,466.9c-5.7,2.1-12.7,5.7-17.1,9.5l3.4-9.5l-3.4-9.5C2605.2,461.2,2612.3,464.8,2618,466.9z"/>
		</g>
	</g>
</g>
<rect x="2630.3" y="383.5" class="st9" width="53.3" height="162.4"/>
<path class="st79" d="M2656.9,453.1L2656.9,453.1c-8.6,0-15.6-7-15.6-15.6v0c0-8.6,7-15.6,15.6-15.6l0,0c8.6,0,15.6,7,15.6,15.6v0
	C2672.5,446.1,2665.6,453.1,2656.9,453.1z"/>
<path class="st79" d="M2656.9,493.2L2656.9,493.2c-8.6,0-15.6-7-15.6-15.6v0c0-8.6,7-15.6,15.6-15.6l0,0c8.6,0,15.6,7,15.6,15.6v0
	C2672.5,486.2,2665.6,493.2,2656.9,493.2z"/>
<path class="st79" d="M2656.9,532.9L2656.9,532.9c-8.6,0-15.6-7-15.6-15.6l0,0c0-8.6,7-15.6,15.6-15.6l0,0c8.6,0,15.6,7,15.6,15.6
	l0,0C2672.5,525.9,2665.6,532.9,2656.9,532.9z"/>
<text transform="matrix(1 0 0 1 2011.7776 390.3249)" class="st21 st80">Q</text>
<text transform="matrix(1 0 0 1 2014.9694 482.407)" class="st21 st80">K</text>
<text transform="matrix(1 0 0 1 2012.5094 578.7847)" class="st21 st80">V</text>
<text transform="matrix(1 0 0 1 1607.0488 478.2611)" class="st21 st50">concat</text>
<text transform="matrix(1 0 0 1 2404.428 476.781)" class="st21 st50">attention</text>
<text transform="matrix(1 0 0 1 1943.087 204.9278)"><tspan x="0" y="0" class="st21 st81">  W</tspan><tspan x="0" y="31.2" class="st21 st81">down</tspan></text>
<text transform="matrix(1 0 0 1 2045.9425 206.4937)"><tspan x="0" y="0" class="st21 st81">W</tspan><tspan x="0" y="31.2" class="st21 st81">up</tspan></text>
<text transform="matrix(1 0 0 1 2650.2209 412.2851)" class="st21 st25">h</text>
<text transform="matrix(1 0 0 1 1810.9976 352.7569)" class="st21 st25">h</text>
<line class="st82" x1="1094" y1="722" x2="2541.6" y2="914.7"/>
<line class="st83" x1="2759.3" y1="701.6" x2="2672.5" y2="876.5"/>
<path class="st74" d="M246.7,657L246.7,657c-15.7,0-28.3-12.7-28.3-28.3v0c0-15.7,12.7-28.3,28.3-28.3h0c15.7,0,28.3,12.7,28.3,28.3
	v0C275.1,644.3,262.4,657,246.7,657z"/>
<path class="st74" d="M108.3,725L108.3,725C92.7,725,80,712.4,80,696.7v0c0-15.7,12.7-28.3,28.3-28.3h0c15.7,0,28.3,12.7,28.3,28.3
	v0C136.7,712.4,124,725,108.3,725z"/>
<g>
	<line x1="149.6" y1="695" x2="210.8" y2="695"/>
	<g>
		<line class="st43" x1="149.6" y1="695" x2="208.4" y2="695"/>
		<g>
			<path class="st44" d="M194.7,704.6c-0.3-0.5-0.2-1.1,0.3-1.4l12.9-8.2l-12.9-8.2c-0.5-0.3-0.6-0.9-0.3-1.4s0.9-0.6,1.4-0.3
				l14.2,9.1c0.3,0.2,0.5,0.5,0.5,0.8s-0.2,0.7-0.5,0.8l-14.2,9.1c-0.2,0.1-0.4,0.2-0.5,0.2C195.2,705.1,194.9,704.9,194.7,704.6z"
				/>
		</g>
	</g>
</g>
<path class="st74" d="M246.7,725L246.7,725c-15.7,0-28.3-12.7-28.3-28.3v0c0-15.7,12.7-28.3,28.3-28.3h0c15.7,0,28.3,12.7,28.3,28.3
	v0C275.1,712.4,262.4,725,246.7,725z"/>
<path class="st74" d="M108.2,792.4L108.2,792.4c-15.7,0-28.3-12.7-28.3-28.3v0c0-15.7,12.7-28.3,28.3-28.3h0
	c15.7,0,28.3,12.7,28.3,28.3v0C136.5,779.7,123.8,792.4,108.2,792.4z"/>
<g>
	<line x1="149.5" y1="762.3" x2="210.6" y2="762.3"/>
	<g>
		<line class="st43" x1="149.5" y1="762.3" x2="208.2" y2="762.3"/>
		<g>
			<path class="st44" d="M194.5,771.9c-0.3-0.5-0.2-1.1,0.3-1.4l12.9-8.2l-12.9-8.2c-0.5-0.3-0.6-0.9-0.3-1.4s0.9-0.6,1.4-0.3
				l14.2,9.1c0.3,0.2,0.5,0.5,0.5,0.8s-0.2,0.7-0.5,0.8l-14.2,9.1c-0.2,0.1-0.4,0.2-0.5,0.2C195.1,772.4,194.7,772.2,194.5,771.9z"
				/>
		</g>
	</g>
</g>
<path class="st74" d="M246.5,792.4L246.5,792.4c-15.7,0-28.3-12.7-28.3-28.3v0c0-15.7,12.7-28.3,28.3-28.3h0
	c15.7,0,28.3,12.7,28.3,28.3v0C274.9,779.7,262.2,792.4,246.5,792.4z"/>
<image style="overflow:visible;" width="200" height="200" xlink:href="作图素材/放大镜.png"  transform="matrix(0.3402 0 0 0.3402 504.9108 471.9366)">
</image>
<text transform="matrix(1 0 0 1 1205.3378 1242.1353)" class="st21 st50">fixed example</text>
<image style="overflow:visible;" width="200" height="200" xlink:href="作图素材/data.png"  transform="matrix(1.1583 0 0 0.9773 369.2358 114.2943)">
</image>
<text transform="matrix(1 0 0 1 424.5628 232.0095)"><tspan x="0" y="0" class="st21 st50">All CWE</tspan><tspan x="0" y="36" class="st21 st50">  Type</tspan></text>
</svg>
